<svg xmlns="http://www.w3.org/2000/svg" version="1.1" xmlns:xlink="http://www.w3.org/1999/xlink" xmlns:svgjs="http://svgjs.dev/svgjs" width="1000" height="1000" viewBox="0 0 1000 1000"><rect width="1000" height="1000" fill="#000000"></rect><g transform="matrix(0.7,0,0,0.7,150.0000000000001,106.25)"><svg viewBox="0 0 320 360" data-background-color="#000000" preserveAspectRatio="xMidYMid meet" height="1125" width="1000" xmlns="http://www.w3.org/2000/svg" xmlns:xlink="http://www.w3.org/1999/xlink"><g id="tight-bounds" transform="matrix(1,0,0,1,0,0)"><svg viewBox="0 0 320 360" height="360" width="320"><g><svg></svg></g><g><svg viewBox="0 0 320 360" height="360" width="320"><g><path xmlns="http://www.w3.org/2000/svg" d="M20.961 227.22l3.726 4.658-1.863-6.056c-0.466-2.795-3.726 0.466-1.863 1.398M25.153 224.425c1.397 2.329 2.795 4.658 2.795 6.987 0 3.261 2.795 4.658 5.123 5.589-3.261-3.726-5.124-13.974-7.918-12.576M204.017 26.929c7.918 0 15.371-0.932 23.756 0.931 20.495 5.124 37.729 15.371 49.374 29.811l32.606 52.169c1.397 13.042 4.192 27.482 3.726 43.319 3.261 0 2.795-4.658 6.521-5.59-3.726 9.316-5.59 20.961-6.521 34.469-2.329-7.453 0-18.632 0.466-24.687-3.261 5.124-5.124 1.397-5.124-0.932 0.466-3.726-1.397-3.261-2.795-4.658-5.124-4.658-8.384-9.782-12.11-17.7 2.329-6.055 2.795-14.905-4.658-19.563-2.329-1.397-5.124-3.726-6.521-7.453-1.863-5.124-5.124-11.179-4.193-19.097 0.466-2.329-6.987 5.124-11.179 1.863-18.166-12.576-36.332-27.016-58.224-39.127-11.645 0-20.029-4.192-24.221-9.316-3.726-4.658-0.932-10.713 4.658-11.179 3.261 0 6.987-0.932 9.782 0.932 0.466-1.863 2.329-4.192 4.657-4.192M157.904 16.215l0.932 0.466c4.658 0.932 6.987 7.453 12.11 5.124 0 3.261 0.466 6.521-0.466 8.85-1.397 3.726-5.59 3.726-8.85 3.726-31.208-1.863-49.374 11.179-68.471 22.358-5.124 3.261-10.713 5.59-14.906 9.782-20.029 18.632-41.921 35.866-47.045 70.335l-4.192 38.195c-0.466 4.192-5.124 8.384-4.192 13.508l3.26 22.824c-3.261-3.261-5.124 0.932-4.192 2.795 0.466 1.397 2.329 6.055 5.124 1.863 3.726 6.987 7.453 20.495 12.576 26.55 15.837 18.632 36.332 35.4 53.101 52.169 4.192-0.932 7.453-0.932 8.384-3.727 1.397 2.795-1.397 5.59-3.726 6.056 7.453 4.658 15.837 8.85 27.016 9.781 14.44 0.932 27.948 3.261 40.524 6.522 6.521-1.863 13.042-2.795 20.029-3.261 2.329 0 3.726-3.726 6.521-4.658l0.466-4.658c2.795 4.192 2.329-1.397 0.466-4.192 3.261 2.795 4.192 5.124 5.589 6.987 0-1.397 3.726-6.521 3.727-0.466l0.931-6.055c1.397-0.932 1.863 5.124 3.261 0.931 1.397-4.192 4.192-0.932 6.987-2.329-0.932 1.863-0.466 5.59 2.794 3.261l3.727-3.261c2.329 5.59 6.055 3.261 7.918 2.329 20.495-13.042 40.99-28.413 60.553-43.784l-0.466 6.055 2.329-7.453c2.329 2.329 4.192 0.466 5.124-0.931 2.795-4.658 6.521-9.316 12.577-13.508-7.453 20.029-16.303 35.866-27.482 48.908l-4.658 5.59c0 3.261-0.932 7.453-4.658 7.918-1.863 0.466-5.59-0.932-8.384 1.863-1.397 1.863 3.261 5.59-0.466 2.795-3.261-2.329-6.521 0-10.248 0.932-2.795 0.932 1.863 3.726 2.795 5.589 0.932 1.863 1.863 3.726 1.398 6.056l-5.124-5.59c-6.055 3.261-9.782 9.316-14.906 13.974-2.329 1.863-1.397 5.124-1.397 7.918-3.261 0-6.987-0.932-8.85 0.932-1.397 1.863-0.932 4.658-0.932 7.453-4.658-0.466-5.124-7.453-9.315-6.056-4.192 0.932-8.85 1.397-12.577 3.727 2.795 5.59-4.658 2.329-3.726 3.26-6.987-4.192-13.042-7.453-20.495-4.658-15.837-5.124-35.4-2.795-49.84-0.931 0-2.329 0.466-4.658-0.466-5.124-0.932 2.329-3.726 1.397-3.26 1.397-8.85-6.055-17.7-9.782-27.016-14.905-8.384 0.932-16.303-3.261-18.632-5.59-6.521-6.055-13.974-2.795-20.029-4.192-13.042-3.261-17.7-16.769-19.098-26.084-0.932-4.658-4.658-6.521-6.055-6.056-6.055-19.563-15.371-37.263-22.824-55.429-1.863-4.658-1.397-9.316-1.397-14.44 2.329 0.932 4.658 0.466 4.192-2.794-2.329-15.371-7.918-27.016-13.974-38.195 3.261-15.837 3.726-34.469 11.179-48.443 6.521-12.576 18.632-19.098 27.016-29.811 2.795-3.726 2.795-8.85 5.59-12.11 9.316-9.316 18.632-19.098 28.879-27.482 4.658-3.726 10.247 0 17.234-1.397 2.329-8.384 11.645-15.837 20.495-13.508 3.726 0.932 11.179-8.85 13.508-9.782 3.726-1.397 1.863 3.726 1.863 6.987 8.85-6.987 20.961-10.713 32.14-14.906" fill="#ffffff" fill-rule="nonzero" stroke="none" stroke-width="1" stroke-linecap="butt" stroke-linejoin="miter" stroke-miterlimit="10" stroke-dasharray="" stroke-dashoffset="0" font-family="none" font-weight="none" font-size="none" text-anchor="none" style="mix-blend-mode: normal" data-fill-palette-color="tertiary"></path></g><g transform="matrix(1,0,0,1,64,111.02176458660847)"><svg viewBox="0 0 192 137.95647082678306" height="137.95647082678306" width="192"><g><svg viewBox="0 0 192 137.95647082678306" height="137.95647082678306" width="192"><g><svg viewBox="0 0 192 137.95647082678306" height="137.95647082678306" width="192"><g transform="matrix(1,0,0,1,0,82.25277099756022)"><svg viewBox="0 0 192 55.70369982922285" height="55.70369982922285" width="192"><g id="textblocktransform"><svg viewBox="0 0 192 55.70369982922285" height="55.70369982922285" width="192" id="textblock"><g><svg viewBox="0 0 192 36.116456741689035" height="36.116456741689035" width="192"><g transform="matrix(1,0,0,1,0,0)"><svg width="192" viewBox="0.800000011920929 -45.150001525878906 242.12998962402344 45.55000305175781" height="36.116456741689035" data-palette-color="#2563eb"><path d="M9.3 0.4Q5.85 0.4 4.55-1.05 3.25-2.5 3.25-5.7L3.25-5.7 3.25-28.55 0.8-28.55 0.8-35.2 3.25-35.2 3.25-42.95 11.75-42.95 11.75-35.2 14.25-35.2 14.25-28.55 11.75-28.55 11.75-8Q11.75-7.05 11.9-6.6 12.05-6.15 12.7-6.15L12.7-6.15Q13.2-6.15 13.65-6.2 14.1-6.25 14.25-6.25L14.25-6.25 14.25-0.25Q13.5-0.05 12.08 0.18 10.65 0.4 9.3 0.4L9.3 0.4ZM25.7-39.05L16.95-39.05 16.95-45.15 25.7-45.15 25.7-39.05ZM25.7 0L16.95 0 16.95-36.6 25.7-36.6 25.7 0ZM29.14 0L29.14-36.6 37.7-36.6 37.7-32.35Q38.3-34.7 39.75-35.85 41.2-37 43.84-37L43.84-37Q46-37 47.57-36.02 49.14-35.05 49.8-33.35L49.8-33.35Q50.89-35.25 52.25-36.13 53.59-37 56-37L56-37Q60.3-37 61.97-34.38 63.64-31.75 63.64-26.75L63.64-26.75 63.55 0 54.75 0 54.75-26.9Q54.75-30.45 52.95-30.45L52.95-30.45Q51.7-30.45 51.14-29.23 50.59-28 50.59-26.3L50.59-26.3 50.59 0 41.84 0 41.84-26.9Q41.84-28.45 41.52-29.4 41.2-30.35 40.14-30.35L40.14-30.35Q38.8-30.35 38.25-29.03 37.7-27.7 37.7-25.85L37.7-25.85 37.7 0 29.14 0ZM77.29 0.4Q71.64 0.4 69.19-2.7 66.74-5.8 66.74-11.95L66.74-11.95 66.74-26.65Q66.74-31.7 69.64-34.35 72.54-37 77.74-37L77.74-37Q88.29-37 88.29-26.65L88.29-26.65 88.29-24Q88.29-20 88.19-17.5L88.19-17.5 75.49-17.5 75.49-10.4Q75.49-8.5 75.89-7.43 76.29-6.35 77.59-6.35L77.59-6.35Q78.59-6.35 79.02-6.95 79.44-7.55 79.52-8.33 79.59-9.1 79.59-10.6L79.59-10.6 79.59-14.15 88.29-14.15 88.29-12.05Q88.29-5.65 85.82-2.63 83.34 0.4 77.29 0.4L77.29 0.4ZM75.44-21.85L79.59-21.85 79.59-26.55Q79.59-30.5 77.64-30.5L77.64-30.5Q75.44-30.5 75.44-26.55L75.44-26.55 75.44-21.85ZM102.44 0.4Q96.44 0.4 93.79-2.65 91.14-5.7 91.14-12L91.14-12 91.14-23.3Q91.14-28.05 92.17-31.03 93.19-34 95.62-35.5 98.04-37 102.34-37L102.34-37Q107.04-37 109.99-34.55 112.94-32.1 112.94-27.7L112.94-27.7 112.94-22.1 104.04-22.1 104.04-27.25Q104.04-28.7 103.64-29.48 103.24-30.25 102.09-30.25L102.09-30.25Q99.94-30.25 99.94-27.2L99.94-27.2 99.94-9.45Q99.94-8.2 100.47-7.33 100.99-6.45 102.04-6.45L102.04-6.45Q103.09-6.45 103.62-7.3 104.14-8.15 104.09-9.5L104.09-9.5 104.04-15.65 112.94-15.65 112.94-9.25Q112.94-4.75 110.02-2.18 107.09 0.4 102.44 0.4L102.44 0.4ZM126.64 0.4Q115.69 0.4 115.69-10.95L115.69-10.95 115.69-25.65Q115.69-30.85 118.61-33.93 121.54-37 126.64-37L126.64-37Q131.74-37 134.66-33.93 137.59-30.85 137.59-25.65L137.59-25.65 137.59-10.95Q137.59 0.4 126.64 0.4L126.64 0.4ZM126.64-6.35Q127.69-6.35 128.19-7.1 128.69-7.85 128.69-9.15L128.69-9.15 128.69-27.05Q128.69-30.25 126.64-30.25L126.64-30.25Q124.59-30.25 124.59-27.05L124.59-27.05 124.59-9.15Q124.59-7.85 125.09-7.1 125.59-6.35 126.64-6.35L126.64-6.35ZM140.84 0L140.84-36.6 149.59-36.6 149.59-31.95Q150.14-34.2 151.49-35.6 152.84-37 155.09-37L155.09-37Q158.79-37 160.56-34.73 162.34-32.45 162.34-28.25L162.34-28.25 162.34 0 153.74 0 153.74-27.35Q153.74-28.55 153.26-29.4 152.78-30.25 151.78-30.25L151.78-30.25Q150.44-30.25 150.01-29.03 149.59-27.8 149.59-25.75L149.59-25.75 149.59 0 140.84 0ZM180.58 0L170.43 0 164.58-36.6 173.33-36.6 175.13-18.1 175.43-12.15 175.78-18.15 177.78-36.6 186.53-36.6 180.58 0ZM199.08 0.4Q193.43 0.4 190.98-2.7 188.53-5.8 188.53-11.95L188.53-11.95 188.53-26.65Q188.53-31.7 191.43-34.35 194.33-37 199.53-37L199.53-37Q210.08-37 210.08-26.65L210.08-26.65 210.08-24Q210.08-20 209.98-17.5L209.98-17.5 197.28-17.5 197.28-10.4Q197.28-8.5 197.68-7.43 198.08-6.35 199.38-6.35L199.38-6.35Q200.38-6.35 200.81-6.95 201.23-7.55 201.31-8.33 201.38-9.1 201.38-10.6L201.38-10.6 201.38-14.15 210.08-14.15 210.08-12.05Q210.08-5.65 207.61-2.63 205.13 0.4 199.08 0.4L199.08 0.4ZM197.23-21.85L201.38-21.85 201.38-26.55Q201.38-30.5 199.43-30.5L199.43-30.5Q197.23-30.5 197.23-26.55L197.23-26.55 197.23-21.85ZM213.23 0L213.23-36.6 221.98-36.6 221.98-32.55Q222.63-34.7 224.25-35.88 225.88-37.05 228.28-37.05L228.28-37.05 228.28-29.75Q226.43-29.75 224.2-29.23 221.98-28.7 221.98-28L221.98-28 221.98 0 213.23 0ZM237.98 0.4Q234.53 0.4 233.23-1.05 231.93-2.5 231.93-5.7L231.93-5.7 231.93-28.55 229.48-28.55 229.48-35.2 231.93-35.2 231.93-42.95 240.43-42.95 240.43-35.2 242.93-35.2 242.93-28.55 240.43-28.55 240.43-8Q240.43-7.05 240.58-6.6 240.73-6.15 241.38-6.15L241.38-6.15Q241.88-6.15 242.33-6.2 242.78-6.25 242.93-6.25L242.93-6.25 242.93-0.25Q242.18-0.05 240.75 0.18 239.33 0.4 237.98 0.4L237.98 0.4Z" opacity="1" transform="matrix(1,0,0,1,0,0)" fill="#ffffff" class="wordmark-text-0" data-fill-palette-color="primary" id="text-0"></path></svg></g></svg></g><g transform="matrix(1,0,0,1,0,41.38671457526327)"><svg viewBox="0 0 192 14.316985253959585" height="14.316985253959585" width="192"><g transform="matrix(1,0,0,1,0,0)"><svg width="192" viewBox="2.809999942779541 -37.9900016784668 670.4600219726562 50" height="14.316985253959585" data-palette-color="#0080ff"><path d="M14.99 0.49L14.99 0.49Q9.18 0.49 5.99-3.09 2.81-6.67 2.81-13.21L2.81-13.21Q2.81-19.92 6.04-23.58 9.28-27.25 15.26-27.25L15.26-27.25Q17.19-27.25 19.12-26.83 21.04-26.42 22.14-25.85L22.14-25.85 20.9-22.41Q19.56-22.95 17.97-23.3 16.38-23.66 15.16-23.66L15.16-23.66Q7.01-23.66 7.01-13.26L7.01-13.26Q7.01-8.33 9-5.69 10.99-3.05 14.89-3.05L14.89-3.05Q18.24-3.05 21.75-4.49L21.75-4.49 21.75-0.9Q19.07 0.49 14.99 0.49ZM51.19-13.4L51.19-13.4Q51.19-6.86 47.9-3.19 44.6 0.49 38.79 0.49L38.79 0.49Q35.2 0.49 32.42-1.2 29.64-2.88 28.12-6.03 26.61-9.18 26.61-13.4L26.61-13.4Q26.61-19.95 29.88-23.6 33.15-27.25 38.96-27.25L38.96-27.25Q44.58-27.25 47.89-23.51 51.19-19.78 51.19-13.4ZM30.81-13.4L30.81-13.4Q30.81-8.28 32.86-5.59 34.91-2.91 38.89-2.91L38.89-2.91Q42.87-2.91 44.93-5.58 46.99-8.25 46.99-13.4L46.99-13.4Q46.99-18.51 44.93-21.15 42.87-23.8 38.84-23.8L38.84-23.8Q34.86-23.8 32.83-21.19 30.81-18.58 30.81-13.4ZM80.66 0L76.61 0 76.61-17.31Q76.61-20.58 75.12-22.19 73.63-23.8 70.45-23.8L70.45-23.8Q66.25-23.8 64.3-21.53 62.35-19.26 62.35-14.04L62.35-14.04 62.35 0 58.3 0 58.3-26.76 61.59-26.76 62.25-23.1 62.45-23.1Q63.69-25.07 65.94-26.16 68.18-27.25 70.94-27.25L70.94-27.25Q75.78-27.25 78.22-24.91 80.66-22.58 80.66-17.46L80.66-17.46 80.66 0ZM99.58 0L94.84 0 84.68-26.76 89.03-26.76 94.79-10.89Q96.75-5.32 97.09-3.66L97.09-3.66 97.28-3.66Q97.55-4.96 98.98-9.02 100.41-13.09 105.39-26.76L105.39-26.76 109.73-26.76 99.58 0ZM125.33 0.49L125.33 0.49Q119.4 0.49 115.97-3.13 112.54-6.74 112.54-13.16L112.54-13.16Q112.54-19.63 115.72-23.44 118.91-27.25 124.28-27.25L124.28-27.25Q129.31-27.25 132.24-23.94 135.17-20.63 135.17-15.21L135.17-15.21 135.17-12.65 116.74-12.65Q116.86-7.93 119.12-5.49 121.38-3.05 125.48-3.05L125.48-3.05Q129.8-3.05 134.02-4.86L134.02-4.86 134.02-1.25Q131.87-0.32 129.96 0.09 128.04 0.49 125.33 0.49ZM124.23-23.85L124.23-23.85Q121.01-23.85 119.09-21.75 117.18-19.65 116.84-15.94L116.84-15.94 130.82-15.94Q130.82-19.78 129.12-21.81 127.41-23.85 124.23-23.85ZM154.28-27.25L154.28-27.25Q156.07-27.25 157.48-26.95L157.48-26.95 156.92-23.19Q155.26-23.56 153.99-23.56L153.99-23.56Q150.74-23.56 148.44-20.92 146.13-18.29 146.13-14.36L146.13-14.36 146.13 0 142.08 0 142.08-26.76 145.42-26.76 145.89-21.8 146.08-21.8Q147.57-24.41 149.67-25.83 151.77-27.25 154.28-27.25ZM171.13-2.86L171.13-2.86Q172.2-2.86 173.2-3.02 174.2-3.17 174.79-3.34L174.79-3.34 174.79-0.24Q174.13 0.07 172.85 0.28 171.57 0.49 170.54 0.49L170.54 0.49Q162.78 0.49 162.78-7.69L162.78-7.69 162.78-23.61 158.94-23.61 158.94-25.56 162.78-27.25 164.49-32.96 166.83-32.96 166.83-26.76 174.59-26.76 174.59-23.61 166.83-23.61 166.83-7.86Q166.83-5.44 167.98-4.15 169.13-2.86 171.13-2.86ZM212.58 0L209.57 0 208.77-3.81 208.57-3.81Q206.57-1.29 204.58-0.4 202.59 0.49 199.61 0.49L199.61 0.49Q195.63 0.49 193.38-1.56 191.12-3.61 191.12-7.4L191.12-7.4Q191.12-15.5 204.08-15.89L204.08-15.89 208.62-16.04 208.62-17.7Q208.62-20.85 207.27-22.35 205.91-23.85 202.93-23.85L202.93-23.85Q199.59-23.85 195.37-21.8L195.37-21.8 194.12-24.9Q196.1-25.98 198.45-26.59 200.81-27.2 203.18-27.2L203.18-27.2Q207.96-27.2 210.27-25.07 212.58-22.95 212.58-18.26L212.58-18.26 212.58 0ZM200.42-2.86L200.42-2.86Q204.2-2.86 206.36-4.93 208.52-7.01 208.52-10.74L208.52-10.74 208.52-13.16 204.47-12.99Q199.64-12.82 197.5-11.49 195.37-10.16 195.37-7.35L195.37-7.35Q195.37-5.15 196.7-4 198.03-2.86 200.42-2.86ZM243.29 0L239.24 0 239.24-17.31Q239.24-20.58 237.75-22.19 236.26-23.8 233.08-23.8L233.08-23.8Q228.88-23.8 226.93-21.53 224.98-19.26 224.98-14.04L224.98-14.04 224.98 0 220.92 0 220.92-26.76 224.22-26.76 224.88-23.1 225.08-23.1Q226.32-25.07 228.57-26.16 230.81-27.25 233.57-27.25L233.57-27.25Q238.41-27.25 240.85-24.91 243.29-22.58 243.29-17.46L243.29-17.46 243.29 0ZM258.15 0.15L247.36-26.76 251.71-26.76 257.57-11.5Q259.5-6.27 259.96-3.96L259.96-3.96 260.16-3.96Q260.47-5.2 261.49-8.22 262.5-11.23 268.11-26.76L268.11-26.76 272.46-26.76 260.96 3.71Q259.25 8.23 256.97 10.12 254.69 12.01 251.37 12.01L251.37 12.01Q249.51 12.01 247.7 11.6L247.7 11.6 247.7 8.35Q249.05 8.64 250.71 8.64L250.71 8.64Q254.88 8.64 256.66 3.96L256.66 3.96 258.15 0.15ZM298.43-2.86L298.43-2.86Q299.51-2.86 300.51-3.02 301.51-3.17 302.09-3.34L302.09-3.34 302.09-0.24Q301.43 0.07 300.15 0.28 298.87 0.49 297.85 0.49L297.85 0.49Q290.08 0.49 290.08-7.69L290.08-7.69 290.08-23.61 286.25-23.61 286.25-25.56 290.08-27.25 291.79-32.96 294.14-32.96 294.14-26.76 301.9-26.76 301.9-23.61 294.14-23.61 294.14-7.86Q294.14-5.44 295.28-4.15 296.43-2.86 298.43-2.86ZM311.49-26.76L311.49 0 307.44 0 307.44-26.76 311.49-26.76ZM307.1-34.01L307.1-34.01Q307.1-35.4 307.78-36.05 308.46-36.69 309.49-36.69L309.49-36.69Q310.47-36.69 311.17-36.04 311.88-35.38 311.88-34.01L311.88-34.01Q311.88-32.64 311.17-31.97 310.47-31.3 309.49-31.3L309.49-31.3Q308.46-31.3 307.78-31.97 307.1-32.64 307.1-34.01ZM358.24 0L354.19 0 354.19-17.41Q354.19-20.61 352.82-22.2 351.45-23.8 348.57-23.8L348.57-23.8Q344.79-23.8 342.98-21.63 341.18-19.46 341.18-14.94L341.18-14.94 341.18 0 337.12 0 337.12-17.41Q337.12-20.61 335.76-22.2 334.39-23.8 331.48-23.8L331.48-23.8Q327.67-23.8 325.9-21.52 324.13-19.24 324.13-14.04L324.13-14.04 324.13 0 320.08 0 320.08-26.76 323.38-26.76 324.04-23.1 324.23-23.1Q325.38-25.05 327.47-26.15 329.55-27.25 332.14-27.25L332.14-27.25Q338.42-27.25 340.35-22.71L340.35-22.71 340.54-22.71Q341.74-24.8 344.01-26.03 346.28-27.25 349.18-27.25L349.18-27.25Q353.72-27.25 355.98-24.91 358.24-22.58 358.24-17.46L358.24-17.46 358.24 0ZM377.89 0.49L377.89 0.49Q371.96 0.49 368.53-3.13 365.1-6.74 365.1-13.16L365.1-13.16Q365.1-19.63 368.29-23.44 371.47-27.25 376.84-27.25L376.84-27.25Q381.87-27.25 384.8-23.94 387.73-20.63 387.73-15.21L387.73-15.21 387.73-12.65 369.3-12.65Q369.42-7.93 371.68-5.49 373.94-3.05 378.04-3.05L378.04-3.05Q382.36-3.05 386.58-4.86L386.58-4.86 386.58-1.25Q384.44-0.32 382.52 0.09 380.6 0.49 377.89 0.49ZM376.79-23.85L376.79-23.85Q373.57-23.85 371.65-21.75 369.74-19.65 369.4-15.94L369.4-15.94 383.39-15.94Q383.39-19.78 381.68-21.81 379.97-23.85 376.79-23.85ZM394.44-5.81L398.89-5.81 399.25-5.25Q398.62-2.81 397.42 0.43 396.22 3.66 394.93 6.45L394.93 6.45 391.88 6.45Q392.54 3.91 393.33 0.17 394.13-3.56 394.44-5.81L394.44-5.81ZM439.33 0L436.33 0 435.53-3.81 435.33-3.81Q433.33-1.29 431.34-0.4 429.35 0.49 426.37 0.49L426.37 0.49Q422.39 0.49 420.13-1.56 417.87-3.61 417.87-7.4L417.87-7.4Q417.87-15.5 430.84-15.89L430.84-15.89 435.38-16.04 435.38-17.7Q435.38-20.85 434.02-22.35 432.67-23.85 429.69-23.85L429.69-23.85Q426.35-23.85 422.12-21.8L422.12-21.8 420.88-24.9Q422.86-25.98 425.21-26.59 427.57-27.2 429.94-27.2L429.94-27.2Q434.72-27.2 437.03-25.07 439.33-22.95 439.33-18.26L439.33-18.26 439.33 0ZM427.18-2.86L427.18-2.86Q430.96-2.86 433.12-4.93 435.28-7.01 435.28-10.74L435.28-10.74 435.28-13.16 431.23-12.99Q426.4-12.82 424.26-11.49 422.12-10.16 422.12-7.35L422.12-7.35Q422.12-5.15 423.45-4 424.78-2.86 427.18-2.86ZM451.73-37.99L451.73 0 447.68 0 447.68-37.99 451.73-37.99ZM464.38-37.99L464.38 0 460.33 0 460.33-37.99 464.38-37.99ZM494.6-2.86L494.6-2.86Q495.67-2.86 496.67-3.02 497.67-3.17 498.26-3.34L498.26-3.34 498.26-0.24Q497.6 0.07 496.32 0.28 495.04 0.49 494.01 0.49L494.01 0.49Q486.25 0.49 486.25-7.69L486.25-7.69 486.25-23.61 482.42-23.61 482.42-25.56 486.25-27.25 487.96-32.96 490.3-32.96 490.3-26.76 498.07-26.76 498.07-23.61 490.3-23.61 490.3-7.86Q490.3-5.44 491.45-4.15 492.6-2.86 494.6-2.86ZM525.97 0L521.92 0 521.92-17.31Q521.92-20.58 520.43-22.19 518.94-23.8 515.76-23.8L515.76-23.8Q511.54-23.8 509.6-21.51 507.66-19.21 507.66-13.99L507.66-13.99 507.66 0 503.6 0 503.6-37.99 507.66-37.99 507.66-26.49Q507.66-24.41 507.46-23.05L507.46-23.05 507.71-23.05Q508.9-24.98 511.11-26.09 513.32-27.2 516.15-27.2L516.15-27.2Q521.06-27.2 523.51-24.87 525.97-22.53 525.97-17.46L525.97-17.46 525.97 0ZM545.59 0.49L545.59 0.49Q539.66 0.49 536.23-3.13 532.8-6.74 532.8-13.16L532.8-13.16Q532.8-19.63 535.99-23.44 539.17-27.25 544.54-27.25L544.54-27.25Q549.57-27.25 552.5-23.94 555.43-20.63 555.43-15.21L555.43-15.21 555.43-12.65 537-12.65Q537.12-7.93 539.38-5.49 541.64-3.05 545.74-3.05L545.74-3.05Q550.06-3.05 554.29-4.86L554.29-4.86 554.29-1.25Q552.14-0.32 550.22 0.09 548.3 0.49 545.59 0.49ZM544.5-23.85L544.5-23.85Q541.27-23.85 539.36-21.75 537.44-19.65 537.1-15.94L537.1-15.94 551.09-15.94Q551.09-19.78 549.38-21.81 547.67-23.85 544.5-23.85ZM583.97-2.86L583.97-2.86Q585.04-2.86 586.04-3.02 587.04-3.17 587.63-3.34L587.63-3.34 587.63-0.24Q586.97 0.07 585.69 0.28 584.41 0.49 583.38 0.49L583.38 0.49Q575.62 0.49 575.62-7.69L575.62-7.69 575.62-23.61 571.79-23.61 571.79-25.56 575.62-27.25 577.33-32.96 579.67-32.96 579.67-26.76 587.43-26.76 587.43-23.61 579.67-23.61 579.67-7.86Q579.67-5.44 580.82-4.15 581.97-2.86 583.97-2.86ZM597.03-26.76L597.03 0 592.97 0 592.97-26.76 597.03-26.76ZM592.63-34.01L592.63-34.01Q592.63-35.4 593.32-36.05 594-36.69 595.03-36.69L595.03-36.69Q596-36.69 596.71-36.04 597.42-35.38 597.42-34.01L597.42-34.01Q597.42-32.64 596.71-31.97 596-31.3 595.03-31.3L595.03-31.3Q594-31.3 593.32-31.97 592.63-32.64 592.63-34.01ZM643.78 0L639.72 0 639.72-17.41Q639.72-20.61 638.36-22.2 636.99-23.8 634.11-23.8L634.11-23.8Q630.33-23.8 628.52-21.63 626.71-19.46 626.71-14.94L626.71-14.94 626.71 0 622.66 0 622.66-17.41Q622.66-20.61 621.29-22.2 619.93-23.8 617.02-23.8L617.02-23.8Q613.21-23.8 611.44-21.52 609.67-19.24 609.67-14.04L609.67-14.04 609.67 0 605.62 0 605.62-26.76 608.91-26.76 609.57-23.1 609.77-23.1Q610.92-25.05 613-26.15 615.09-27.25 617.68-27.25L617.68-27.25Q623.95-27.25 625.88-22.71L625.88-22.71 626.08-22.71Q627.27-24.8 629.54-26.03 631.81-27.25 634.72-27.25L634.72-27.25Q639.26-27.25 641.52-24.91 643.78-22.58 643.78-17.46L643.78-17.46 643.78 0ZM663.43 0.49L663.43 0.49Q657.5 0.49 654.07-3.13 650.64-6.74 650.64-13.16L650.64-13.16Q650.64-19.63 653.82-23.44 657.01-27.25 662.38-27.25L662.38-27.25Q667.41-27.25 670.34-23.94 673.27-20.63 673.27-15.21L673.27-15.21 673.27-12.65 654.83-12.65Q654.96-7.93 657.22-5.49 659.47-3.05 663.57-3.05L663.57-3.05Q667.9-3.05 672.12-4.86L672.12-4.86 672.12-1.25Q669.97-0.32 668.05 0.09 666.14 0.49 663.43 0.49ZM662.33-23.85L662.33-23.85Q659.11-23.85 657.19-21.75 655.27-19.65 654.93-15.94L654.93-15.94 668.92-15.94Q668.92-19.78 667.21-21.81 665.5-23.85 662.33-23.85Z" opacity="1" transform="matrix(1,0,0,1,0,0)" fill="#ffffff" class="slogan-text-1" data-fill-palette-color="secondary" id="text-1"></path></svg></g></svg></g></svg></g></svg></g><g transform="matrix(1,0,0,1,53.29122387862752,0)"><svg viewBox="0 0 85.41755224274496 76.98251316398598" height="76.98251316398598" width="85.41755224274496"><g><svg xmlns="http://www.w3.org/2000/svg" xmlns:xlink="http://www.w3.org/1999/xlink" version="1.1" x="0" y="0" viewBox="5.0032477378845215 8.907999992370605 90.31575012207031 81.39701080322266" enable-background="new 0 0 100 100" xml:space="preserve" height="76.98251316398598" width="85.41755224274496" class="icon-icon-0" data-fill-palette-color="accent" id="icon-0"><path d="M54.621 8.908c-1.974 0-3.575 1.602-3.575 3.578 0 1.976 1.602 3.578 3.575 3.578 18.493 0 33.54 15.047 33.54 33.543 0 18.495-15.047 33.542-33.54 33.542-16.971 0-31.03-12.676-33.23-29.056l2.504 2.505c0.699 0.699 1.614 1.047 2.53 1.047 0.916 0 1.831-0.348 2.53-1.047 1.397-1.398 1.397-3.663 0-5.061l-8.922-8.922c-1.397-1.397-3.663-1.397-5.06 0l-8.922 8.922c-1.397 1.397-1.397 3.662 0 5.061 1.397 1.396 3.663 1.396 5.061 0l3.012-3.012c2.007 20.579 19.403 36.719 40.498 36.719 22.439 0 40.697-18.258 40.697-40.698C95.318 27.166 77.061 8.908 54.621 8.908z" fill="#ffffff" data-fill-palette-color="accent"></path><path d="M41.141 69.414c-0.971 0-1.941-0.369-2.682-1.11-1.481-1.481-1.482-3.883-0.001-5.364l11.856-11.86V27.108c0-2.095 1.698-3.793 3.791-3.793 2.094 0 3.79 1.698 3.79 3.793v25.541c0 1.006-0.398 1.97-1.109 2.682L43.823 68.303C43.083 69.043 42.112 69.414 41.141 69.414z" fill="#ffffff" data-fill-palette-color="accent"></path><path d="M81.644 51.94h-3.926c-1.381 0-2.5-1.119-2.5-2.5s1.119-2.5 2.5-2.5h3.926c1.381 0 2.5 1.119 2.5 2.5S83.024 51.94 81.644 51.94z" fill="#ffffff" data-fill-palette-color="accent"></path><path d="M72.316 71.539c-0.64 0-1.279-0.244-1.768-0.732l-2.776-2.776c-0.977-0.977-0.977-2.559 0-3.535s2.559-0.977 3.535 0l2.776 2.776c0.977 0.977 0.977 2.559 0 3.535C73.596 71.295 72.956 71.539 72.316 71.539z" fill="#ffffff" data-fill-palette-color="accent"></path><path d="M52.719 79.657c-1.381 0-2.5-1.119-2.5-2.5V73.23c0-1.381 1.119-2.5 2.5-2.5s2.5 1.119 2.5 2.5v3.927C55.219 78.538 54.1 79.657 52.719 79.657z" fill="#ffffff" data-fill-palette-color="accent"></path><path d="M69.541 35.117c-0.64 0-1.279-0.244-1.768-0.732-0.977-0.977-0.977-2.559 0-3.536l2.775-2.776c0.975-0.977 2.559-0.976 3.535 0 0.977 0.977 0.977 2.559 0 3.536l-2.775 2.776C70.821 34.873 70.181 35.117 69.541 35.117z" fill="#ffffff" data-fill-palette-color="accent"></path></svg></g></svg></g><g></g></svg></g></svg></g></svg></g></svg></g><defs></defs></svg><rect width="320" height="360" fill="none" stroke="none" visibility="hidden"></rect></g></svg></g></svg>