<svg xmlns="http://www.w3.org/2000/svg" width="1000" height="1125" viewBox="0 0 1000 1125" version="1.1"><path d="M 517.113 226.364 C 516.366 227.264, 514.296 228, 512.512 228 C 510.729 228, 508.126 228.900, 506.727 230 C 505.329 231.100, 503.883 232, 503.515 232 C 503.147 232, 501.531 233.315, 499.923 234.923 C 498.315 236.531, 497 238.270, 497 238.788 C 497 239.306, 496.152 240.808, 495.116 242.125 C 493.775 243.830, 493.142 246.536, 492.919 251.510 C 492.747 255.355, 492.695 260.867, 492.803 263.760 C 492.947 267.615, 493.534 269.477, 495 270.732 C 496.100 271.674, 497 272.876, 497 273.402 C 497 273.929, 499.087 276.304, 501.639 278.680 C 504.190 281.056, 506.967 283, 507.810 283 C 508.653 283, 510.212 283.788, 511.274 284.750 C 512.927 286.247, 515.753 286.548, 530.853 286.836 C 540.779 287.025, 549.035 287.616, 549.723 288.186 C 550.396 288.744, 555.651 289.577, 561.401 290.037 C 567.328 290.512, 573.164 291.551, 574.878 292.437 C 576.540 293.297, 580.141 294, 582.879 294 C 586.178 294, 588.415 294.558, 589.512 295.655 C 590.435 296.578, 593.439 297.528, 596.303 297.803 C 599.128 298.075, 602.007 298.864, 602.700 299.557 C 603.393 300.250, 605.743 301.119, 607.923 301.487 C 610.102 301.855, 612.416 302.796, 613.065 303.578 C 613.714 304.360, 615.479 305, 616.988 305 C 618.496 305, 620.874 305.900, 622.273 307 C 623.671 308.100, 625.996 309, 627.439 309 C 628.882 309, 630.317 309.663, 630.628 310.473 C 630.939 311.283, 632.761 312.240, 634.676 312.599 C 636.592 312.958, 638.386 313.843, 638.663 314.565 C 638.940 315.287, 640.474 316.165, 642.072 316.516 C 643.670 316.867, 645.238 317.576, 645.557 318.092 C 645.876 318.608, 647.568 319.698, 649.318 320.513 C 651.068 321.329, 653.850 322.892, 655.500 323.987 C 657.150 325.083, 659.625 326.537, 661 327.218 C 662.375 327.900, 663.860 329.030, 664.300 329.729 C 664.740 330.428, 665.766 331, 666.581 331 C 667.396 331, 668.315 331.658, 668.624 332.462 C 668.932 333.266, 670.156 334.223, 671.342 334.589 C 672.529 334.954, 674.175 335.851, 675 336.580 C 675.825 337.310, 677.513 338.828, 678.750 339.954 C 679.987 341.079, 681.286 342, 681.635 342 C 681.985 342, 683.324 343.012, 684.611 344.250 C 685.898 345.488, 687.862 347.288, 688.976 348.250 C 690.089 349.212, 691.264 350, 691.587 350 C 691.910 350, 694.629 352.475, 697.630 355.500 C 700.631 358.525, 703.464 361, 703.926 361 C 704.389 361, 705.002 361.900, 705.290 363 C 705.577 364.100, 706.530 365, 707.406 365 C 708.283 365, 709 365.509, 709 366.132 C 709 366.754, 710.469 368.667, 712.264 370.382 C 714.060 372.097, 718.408 377.100, 721.927 381.500 C 725.447 385.900, 728.815 389.950, 729.413 390.500 C 730.011 391.050, 731.139 392.738, 731.919 394.250 C 732.699 395.762, 733.712 397, 734.169 397 C 734.626 397, 735 397.671, 735 398.492 C 735 399.312, 735.900 400.545, 737 401.232 C 738.100 401.919, 739 403.089, 739 403.833 C 739 404.576, 739.900 406.329, 741 407.727 C 742.100 409.126, 743 410.884, 743 411.635 C 743 412.386, 743.675 413, 744.500 413 C 745.325 413, 746 413.839, 746 414.865 C 746 415.891, 746.900 417.874, 748 419.273 C 749.100 420.671, 750 422.463, 750 423.255 C 750 424.046, 750.900 425.732, 752 427 C 753.100 428.268, 754 430.082, 754 431.031 C 754 431.979, 754.663 433.305, 755.474 433.978 C 756.284 434.651, 757.228 436.700, 757.572 438.531 C 757.915 440.363, 758.827 442.104, 759.598 442.399 C 760.369 442.695, 761.003 443.964, 761.007 445.219 C 761.010 446.473, 761.907 448.850, 763 450.500 C 764.093 452.150, 764.990 454.705, 764.993 456.179 C 764.997 457.652, 765.637 459.494, 766.415 460.272 C 767.194 461.051, 768.148 463.805, 768.536 466.393 C 768.924 468.982, 769.788 471.645, 770.455 472.313 C 771.123 472.980, 771.983 476.201, 772.368 479.471 C 772.752 482.741, 773.672 486.110, 774.413 486.958 C 775.180 487.836, 775.961 491.819, 776.227 496.214 C 776.500 500.717, 777.279 504.631, 778.097 505.617 C 779.248 507.004, 779.500 514.343, 779.500 546.500 C 779.500 578.657, 779.248 585.996, 778.097 587.383 C 777.279 588.369, 776.500 592.283, 776.227 596.786 C 775.943 601.470, 775.193 605.147, 774.318 606.147 C 773.525 607.053, 772.606 610.421, 772.274 613.632 C 771.943 616.844, 771.125 620.018, 770.457 620.686 C 769.789 621.354, 768.940 623.911, 768.572 626.369 C 768.203 628.826, 767.249 631.378, 766.451 632.041 C 765.653 632.703, 765 634.696, 765 636.469 C 765 638.259, 764.110 640.720, 763 642 C 761.900 643.268, 761 645.539, 761 647.046 C 761 648.553, 760.350 650.036, 759.555 650.340 C 758.761 650.645, 757.813 652.478, 757.451 654.412 C 757.088 656.346, 756.163 658.450, 755.395 659.087 C 754.628 659.724, 754 660.906, 754 661.715 C 754 662.523, 753.100 664.329, 752 665.727 C 750.900 667.126, 750 668.884, 750 669.635 C 750 670.386, 749.100 671.900, 748 673 C 746.900 674.100, 746 675.900, 746 677 C 746 678.100, 745.556 679, 745.013 679 C 744.471 679, 743.330 680.462, 742.477 682.250 C 741.625 684.038, 740.245 686.737, 739.409 688.250 C 738.574 689.763, 737.496 691, 737.013 691 C 736.530 691, 735.822 692.012, 735.441 693.250 C 735.059 694.487, 734.149 696.175, 733.420 697 C 732.690 697.825, 731.172 699.513, 730.046 700.750 C 728.921 701.987, 728 703.300, 728 703.666 C 728 704.032, 727.327 705.045, 726.505 705.916 C 725.683 706.787, 723.883 708.915, 722.505 710.644 C 721.127 712.374, 720 714.286, 720 714.894 C 720 715.502, 719.325 716, 718.500 716 C 717.675 716, 717 716.424, 717 716.942 C 717 717.460, 712.249 722.635, 706.442 728.442 C 700.635 734.249, 695.460 739, 694.942 739 C 694.424 739, 694 739.675, 694 740.500 C 694 741.325, 693.311 742, 692.469 742 C 691.626 742, 690.672 742.692, 690.347 743.537 C 690.023 744.382, 688.575 745.693, 687.129 746.450 C 685.683 747.207, 682.925 749.196, 681 750.870 C 679.075 752.543, 676.787 754.607, 675.916 755.456 C 675.045 756.305, 674.052 757, 673.711 757 C 673.369 757, 671.391 758.152, 669.316 759.560 C 667.241 760.968, 665.309 762.440, 665.022 762.830 C 664.735 763.221, 663.375 764.116, 662 764.819 C 660.625 765.522, 658.234 766.789, 656.686 767.634 C 655.138 768.479, 653.627 769.807, 653.329 770.585 C 653.030 771.363, 651.779 772, 650.548 772 C 649.317 772, 647.495 772.900, 646.500 774 C 645.505 775.100, 643.892 776, 642.916 776 C 641.941 776, 640.468 776.675, 639.643 777.500 C 638.818 778.325, 637.496 779, 636.706 779 C 635.916 779, 634.126 779.900, 632.727 781 C 631.329 782.100, 629.239 783, 628.082 783 C 626.926 783, 625.210 783.900, 624.268 785 C 623.227 786.216, 621.318 787, 619.400 787 C 617.665 787, 615.714 787.640, 615.065 788.422 C 614.416 789.204, 611.998 790.153, 609.692 790.531 C 607.387 790.909, 604.825 791.785, 604 792.477 C 603.175 793.170, 600.553 793.983, 598.172 794.284 C 595.792 794.584, 593.057 795.544, 592.094 796.415 C 591.021 797.386, 588.531 798, 585.668 798 C 582.903 798, 579.468 798.817, 577.261 800 C 574.551 801.453, 571.610 802.002, 566.515 802.006 C 562.039 802.010, 558.414 802.588, 556.500 803.602 C 553.942 804.957, 548.859 805.192, 522 805.195 C 495.343 805.198, 489.928 804.953, 486.782 803.599 C 484.732 802.717, 480.340 802, 476.992 802 C 472.894 802, 469.646 801.350, 467 800 C 464.564 798.757, 461.106 798, 457.869 798 C 454.516 798, 452.033 797.435, 450.906 796.415 C 449.943 795.544, 447.208 794.571, 444.828 794.254 C 442.447 793.937, 440.050 793.123, 439.500 792.445 C 438.950 791.768, 436.399 790.918, 433.832 790.558 C 431.264 790.197, 428.622 789.249, 427.959 788.451 C 427.297 787.653, 425.685 787, 424.378 787 C 423.070 787, 421.100 786.100, 420 785 C 418.900 783.900, 416.930 783, 415.622 783 C 414.315 783, 412.709 782.354, 412.053 781.564 C 411.398 780.775, 409.574 779.846, 408 779.500 C 406.426 779.154, 404.602 778.225, 403.947 777.436 C 403.291 776.646, 402.094 776, 401.285 776 C 400.477 776, 398.671 775.100, 397.273 774 C 395.874 772.900, 394.116 772, 393.365 772 C 392.614 772, 391.100 771.100, 390 770 C 388.900 768.900, 387.100 768, 386 768 C 384.889 768, 384 767.333, 384 766.500 C 384 765.675, 383.321 765, 382.490 765 C 381.660 765, 380.210 764.100, 379.268 763 C 378.326 761.900, 376.976 761, 376.268 761 C 375.560 761, 374.210 760.100, 373.268 759 C 372.326 757.900, 371.131 757, 370.612 757 C 370.093 757, 368.955 756.327, 368.084 755.505 C 367.213 754.683, 365.085 752.883, 363.356 751.505 C 361.626 750.127, 359.762 749, 359.213 749 C 358.663 749, 357.955 748.325, 357.638 747.500 C 357.322 746.675, 356.374 746, 355.531 746 C 354.689 746, 354 745.325, 354 744.500 C 354 743.675, 353.552 743, 353.005 743 C 352.457 743, 345.707 736.686, 338.005 728.970 C 330.302 721.253, 324 714.612, 324 714.213 C 324 713.813, 322.425 712.041, 320.500 710.274 C 318.575 708.507, 317 706.657, 317 706.163 C 317 705.669, 314.300 701.770, 311 697.500 C 307.700 693.230, 305 689.120, 305 688.368 C 305 687.616, 304.556 687, 304.013 687 C 303.471 687, 302.330 685.538, 301.477 683.750 C 300.625 681.962, 299.245 679.263, 298.409 677.750 C 297.574 676.237, 296.465 675, 295.945 675 C 295.425 675, 295 674.100, 295 673 C 295 671.900, 294.100 670.100, 293 669 C 291.900 667.900, 291 666.100, 291 665 C 291 663.900, 290.100 662.100, 289 661 C 287.900 659.900, 287 658.058, 287 656.908 C 287 655.757, 286.100 653.671, 285 652.273 C 283.900 650.874, 283 648.721, 283 647.488 C 283 646.254, 282.360 644.714, 281.578 644.065 C 280.796 643.416, 279.851 641.079, 279.479 638.873 C 279.106 636.666, 278.171 634.619, 277.400 634.323 C 276.609 634.020, 276 632.413, 276 630.628 C 276 628.891, 275.100 625.791, 274 623.739 C 272.900 621.686, 272 618.306, 272 616.226 C 272 614.147, 271.297 611.442, 270.438 610.215 C 269.579 608.989, 268.531 604.752, 268.109 600.800 C 267.685 596.838, 266.816 593.439, 266.170 593.223 C 265.527 593.009, 265.029 591.633, 265.063 590.167 C 265.125 587.575, 265.152 587.563, 266.031 589.750 C 266.529 590.987, 267.363 592, 267.885 592 C 268.408 592, 272.299 595.375, 276.533 599.500 C 280.766 603.625, 284.916 607, 285.755 607 C 286.593 607, 287.855 607.788, 288.558 608.750 C 289.598 610.173, 291.740 610.565, 300.040 610.848 C 309.152 611.158, 310.549 610.970, 313.082 609.098 C 314.642 607.944, 316.439 607, 317.075 607 C 317.711 607, 320.429 604.695, 323.116 601.879 C 325.802 599.062, 328 595.849, 328 594.739 C 328 593.629, 328.788 592.145, 329.750 591.441 C 331.178 590.397, 331.500 588.605, 331.500 581.689 C 331.500 575.023, 331.127 572.802, 329.750 571.279 C 328.787 570.214, 328 568.369, 328 567.180 C 328 565.990, 327.100 564.455, 326 563.768 C 324.900 563.081, 324 562.183, 324 561.773 C 324 561.363, 319.506 556.522, 314.014 551.014 C 308.522 545.506, 303.572 541, 303.014 541 C 302.456 541, 302 540.525, 302 539.944 C 302 539.364, 299.100 535.989, 295.556 532.444 C 292.011 528.900, 288.636 526, 288.056 526 C 287.475 526, 287 525.538, 287 524.974 C 287 524.409, 284.987 521.934, 282.526 519.474 C 280.066 517.013, 277.591 515, 277.026 515 C 276.462 515, 276 514.535, 276 513.966 C 276 513.397, 273.076 510.022, 269.503 506.466 C 265.929 502.910, 262.554 500, 262.003 500 C 261.451 500, 261 499.529, 261 498.953 C 261 498.377, 259.025 495.902, 256.610 493.453 C 254.196 491.004, 251.829 489, 251.351 489 C 250.872 489, 249.919 488.100, 249.232 487 C 248.545 485.900, 247.235 485, 246.320 485 C 245.406 485, 243.787 484.213, 242.724 483.250 C 241.174 481.848, 238.944 481.500, 231.500 481.500 C 224.056 481.500, 221.826 481.848, 220.276 483.250 C 219.213 484.212, 217.606 485, 216.706 485 C 215.807 485, 214.589 485.900, 214 487 C 213.411 488.100, 212.270 489, 211.465 489 C 210.659 489, 210 489.645, 210 490.433 C 210 491.221, 209.100 492.151, 208 492.500 C 206.900 492.849, 206 493.727, 206 494.451 C 206 495.175, 205.100 496.002, 204 496.290 C 202.900 496.577, 202 497.530, 202 498.406 C 202 499.283, 201.570 500, 201.045 500 C 200.520 500, 198.945 501.145, 197.545 502.545 C 196.145 503.945, 195 505.468, 195 505.929 C 195 506.390, 194.100 507.002, 193 507.290 C 191.900 507.577, 191 508.530, 191 509.406 C 191 510.283, 190.355 511, 189.567 511 C 188.779 511, 187.849 511.900, 187.500 513 C 187.151 514.100, 186.466 515, 185.978 515 C 185.490 515, 183.945 516.145, 182.545 517.545 C 181.145 518.945, 180 520.468, 180 520.929 C 180 521.390, 179.100 522.002, 178 522.290 C 176.900 522.577, 176 523.530, 176 524.406 C 176 525.283, 175.570 526, 175.045 526 C 174.520 526, 172.945 527.145, 171.545 528.545 C 170.145 529.945, 169 531.490, 169 531.978 C 169 532.466, 168.100 533.151, 167 533.500 C 165.900 533.849, 165 534.727, 165 535.451 C 165 536.175, 164.100 537.002, 163 537.290 C 161.900 537.577, 161 538.530, 161 539.406 C 161 540.283, 160.570 541, 160.045 541 C 159.520 541, 157.945 542.145, 156.545 543.545 C 155.145 544.945, 154 546.520, 154 547.045 C 154 547.570, 153.283 548, 152.406 548 C 151.530 548, 150.577 548.900, 150.290 550 C 150.002 551.100, 149.405 552, 148.962 552 C 148.520 552, 146.097 554.061, 143.579 556.579 C 141.061 559.097, 139 561.572, 139 562.079 C 139 562.586, 138.574 563, 138.053 563 C 137.532 563, 135.957 565.287, 134.553 568.082 C 132.394 572.379, 132 574.524, 132 581.960 C 132 588.383, 132.387 591.076, 133.436 591.947 C 134.225 592.602, 135.161 594.457, 135.515 596.069 C 135.869 597.681, 136.798 599, 137.579 599 C 138.361 599, 139 599.485, 139 600.077 C 139 600.669, 140.315 602.469, 141.923 604.077 C 143.531 605.685, 145.408 607, 146.094 607 C 146.781 607, 148.213 607.788, 149.276 608.750 C 150.871 610.193, 153.136 610.500, 162.186 610.500 C 171.484 610.500, 173.357 610.233, 174.441 608.750 C 175.145 607.788, 176.462 607, 177.369 607 C 178.276 607, 184.005 602.163, 190.101 596.250 C 196.196 590.337, 201.592 585.350, 202.092 585.167 C 202.591 584.983, 203 585.896, 203 587.194 C 203 588.493, 203.616 590.443, 204.370 591.527 C 205.162 592.669, 205.928 597.173, 206.189 602.222 C 206.513 608.505, 207.108 611.462, 208.319 612.800 C 209.461 614.062, 210 616.406, 210 620.106 C 210 623.347, 210.612 626.429, 211.510 627.711 C 212.340 628.896, 213.301 632.034, 213.645 634.683 C 213.988 637.332, 214.829 640.175, 215.512 641 C 216.196 641.825, 217.067 644.664, 217.448 647.308 C 217.839 650.028, 218.761 652.355, 219.570 652.665 C 220.388 652.979, 221.003 654.559, 221.007 656.357 C 221.010 658.086, 221.907 660.850, 223 662.500 C 224.093 664.150, 224.990 666.311, 224.993 667.302 C 224.997 668.293, 225.977 670.993, 227.171 673.302 C 228.364 675.611, 229.717 678.175, 230.177 679 C 230.637 679.825, 231.271 681.175, 231.588 682 C 231.904 682.825, 232.573 684.400, 233.074 685.500 C 233.575 686.600, 234.391 688.175, 234.886 689 C 235.381 689.825, 236.281 691.625, 236.886 693 C 237.491 694.375, 238.368 696.175, 238.835 697 C 239.302 697.825, 240.209 699.400, 240.850 700.500 C 241.490 701.600, 242.564 703.625, 243.236 705 C 243.908 706.375, 245.030 707.860, 245.729 708.300 C 246.428 708.740, 247 709.973, 247 711.041 C 247 712.109, 247.900 713.545, 249 714.232 C 250.100 714.919, 251 716.181, 251 717.037 C 251 717.893, 251.787 719.638, 252.750 720.915 C 253.713 722.192, 255.288 724.084, 256.250 725.119 C 257.213 726.153, 258 727.313, 258 727.696 C 258 728.079, 259.236 730.217, 260.747 732.446 C 262.258 734.676, 264.058 736.860, 264.747 737.300 C 265.436 737.740, 266 738.527, 266 739.050 C 266 739.572, 266.788 740.807, 267.750 741.793 C 268.713 742.780, 270.400 744.884, 271.500 746.469 C 272.600 748.054, 275.188 751.108, 277.250 753.255 C 279.313 755.402, 281 757.405, 281 757.706 C 281 758.007, 287.982 765.171, 296.516 773.627 C 305.050 782.082, 312.267 789, 312.555 789 C 312.842 789, 314.951 790.800, 317.240 793 C 319.530 795.200, 321.971 797, 322.666 797 C 323.361 797, 324.411 797.900, 325 799 C 325.589 800.100, 326.681 801, 327.428 801 C 328.175 801, 329.045 801.675, 329.362 802.500 C 329.678 803.325, 330.626 804, 331.469 804 C 332.311 804, 333 804.438, 333 804.974 C 333 805.510, 334.462 806.696, 336.250 807.610 C 338.037 808.523, 339.860 809.885, 340.300 810.635 C 340.740 811.386, 341.532 812, 342.060 812 C 342.588 812, 345.261 813.575, 348 815.500 C 350.739 817.425, 353.251 819, 353.582 819 C 353.913 819, 355.329 819.900, 356.727 821 C 358.126 822.100, 360.109 823, 361.135 823 C 362.161 823, 363 823.655, 363 824.455 C 363 825.325, 364.405 826.173, 366.500 826.566 C 368.425 826.927, 370 827.616, 370 828.098 C 370 828.579, 371.520 829.608, 373.378 830.385 C 375.236 831.161, 377.062 832.292, 377.437 832.898 C 377.812 833.504, 379.033 834, 380.151 834 C 381.270 834, 383.329 834.900, 384.727 836 C 386.126 837.100, 388.286 838, 389.528 838 C 390.770 838, 392.029 838.633, 392.325 839.406 C 392.622 840.179, 394.358 841.129, 396.182 841.517 C 398.007 841.905, 400.175 842.787, 401 843.476 C 401.825 844.165, 404.192 844.988, 406.260 845.304 C 408.328 845.619, 410.723 846.580, 411.582 847.439 C 412.440 848.297, 414.538 849, 416.243 849 C 417.948 849, 420.147 849.728, 421.131 850.618 C 422.114 851.508, 425.064 852.478, 427.686 852.774 C 430.309 853.069, 433.004 853.862, 433.677 854.534 C 434.350 855.207, 437.510 856.080, 440.700 856.475 C 443.890 856.870, 447.131 857.712, 447.902 858.346 C 448.673 858.981, 452.498 859.781, 456.402 860.124 C 460.306 860.467, 465.300 861.460, 467.500 862.330 C 470.045 863.337, 474.773 863.934, 480.500 863.971 C 485.668 864.005, 491.203 864.644, 493.500 865.471 C 496.543 866.567, 503.173 866.923, 521.215 866.956 C 539.082 866.989, 545.987 866.651, 549.215 865.584 C 551.572 864.806, 558.450 863.981, 564.500 863.751 C 572.237 863.457, 576.390 862.841, 578.500 861.673 C 580.274 860.691, 583.758 860.010, 587.027 860.006 C 590.068 860.003, 593.443 859.386, 594.527 858.635 C 595.612 857.884, 599.200 856.943, 602.500 856.543 C 605.800 856.144, 609.175 855.242, 610 854.540 C 610.825 853.838, 613.447 853.017, 615.828 852.716 C 618.208 852.416, 620.943 851.456, 621.906 850.585 C 622.869 849.713, 625.126 849, 626.921 849 C 628.716 849, 631.329 848.100, 632.727 847 C 634.126 845.900, 636.504 845, 638.012 845 C 639.521 845, 641.276 844.372, 641.913 843.605 C 642.550 842.837, 644.585 841.925, 646.435 841.578 C 648.285 841.231, 650.349 840.284, 651.022 839.474 C 651.695 838.663, 653.319 838, 654.632 838 C 655.945 838, 657.790 837.100, 658.732 836 C 659.674 834.900, 661.414 834, 662.600 834 C 663.785 834, 665.291 833.354, 665.947 832.564 C 666.602 831.775, 668.488 830.832, 670.137 830.470 C 671.786 830.108, 673.378 829.179, 673.675 828.406 C 673.971 827.633, 675.066 827, 676.107 827 C 677.148 827, 678.900 826.100, 680 825 C 681.100 823.900, 682.648 823, 683.441 823 C 684.234 823, 685.188 822.504, 685.563 821.898 C 685.938 821.292, 687.764 820.161, 689.622 819.385 C 691.480 818.608, 693 817.560, 693 817.054 C 693 816.548, 693.928 815.840, 695.062 815.480 C 696.195 815.121, 698.651 813.853, 700.519 812.663 C 702.387 811.473, 703.934 809.938, 703.958 809.250 C 703.981 808.563, 704.830 808, 705.845 808 C 706.860 808, 708.505 807.100, 709.500 806 C 710.495 804.900, 711.899 804, 712.620 804 C 713.340 804, 714.411 803.100, 715 802 C 715.589 800.900, 716.730 800, 717.535 800 C 718.341 800, 719 799.325, 719 798.500 C 719 797.675, 719.500 797, 720.111 797 C 720.722 797, 723.535 795.107, 726.361 792.793 C 729.188 790.479, 732.175 788.022, 733 787.332 C 733.825 786.642, 740.125 780.478, 747 773.634 C 753.875 766.790, 761.184 759.235, 763.242 756.845 C 765.300 754.455, 768 751.112, 769.242 749.415 C 770.484 747.717, 772.175 745.616, 773 744.745 C 773.825 743.873, 775.400 742.004, 776.500 740.590 C 777.600 739.176, 779.274 737.061, 780.220 735.891 C 781.166 734.720, 782.196 732.957, 782.508 731.974 C 782.821 730.990, 783.734 729.932, 784.538 729.624 C 785.342 729.315, 786 728.474, 786 727.754 C 786 727.034, 786.900 725.674, 788 724.732 C 789.100 723.790, 790 722.115, 790 721.010 C 790 719.904, 790.370 719, 790.822 719 C 791.275 719, 792.850 717.160, 794.322 714.910 C 795.795 712.661, 797 710.286, 797 709.632 C 797 708.979, 797.900 707.674, 799 706.732 C 800.100 705.790, 801 704.215, 801 703.232 C 801 702.249, 801.900 700.674, 803 699.732 C 804.100 698.790, 805 696.938, 805 695.617 C 805 694.295, 805.633 692.971, 806.406 692.675 C 807.179 692.378, 808.108 690.786, 808.470 689.137 C 808.832 687.488, 809.775 685.602, 810.564 684.947 C 811.354 684.291, 812 682.869, 812 681.785 C 812 680.702, 812.900 678.671, 814 677.273 C 815.100 675.874, 816 673.714, 816 672.472 C 816 671.230, 816.630 669.972, 817.400 669.677 C 818.171 669.381, 819.125 667.222, 819.521 664.878 C 819.917 662.534, 820.861 659.996, 821.620 659.237 C 822.379 658.478, 823.003 656.652, 823.007 655.179 C 823.010 653.705, 823.907 651.150, 825 649.500 C 826.093 647.850, 826.990 645.261, 826.993 643.746 C 826.997 642.232, 827.900 639.314, 829 637.261 C 830.100 635.209, 831 631.803, 831 629.693 C 831 627.583, 831.620 625.237, 832.378 624.479 C 833.136 623.721, 834.082 620.041, 834.481 616.300 C 834.880 612.560, 835.711 608.600, 836.329 607.500 C 836.947 606.400, 837.723 600.915, 838.054 595.311 C 838.440 588.749, 839.161 584.511, 840.077 583.408 C 841.247 581.998, 841.500 575.546, 841.500 547.097 C 841.500 516.637, 841.291 511.928, 839.750 507.715 C 838.691 504.819, 837.998 500.082, 837.994 495.715 C 837.990 491.582, 837.406 487.385, 836.625 485.889 C 835.876 484.453, 834.947 480.334, 834.562 476.735 C 834.177 473.137, 833.232 469.362, 832.463 468.346 C 831.693 467.331, 831.049 464.918, 831.032 462.985 C 831.014 461.052, 830.100 457.791, 829 455.739 C 827.900 453.686, 827 450.879, 827 449.500 C 827 448.121, 826.100 445.314, 825 443.261 C 823.900 441.209, 823 438.308, 823 436.814 C 823 435.321, 822.393 433.740, 821.652 433.300 C 820.910 432.860, 820.020 430.701, 819.675 428.503 C 819.329 426.305, 818.360 424.005, 817.523 423.393 C 816.685 422.781, 816 421.087, 816 419.630 C 816 418.173, 815.100 416.210, 814 415.268 C 812.881 414.310, 812 412.318, 812 410.746 C 812 409.201, 811.352 407.689, 810.561 407.385 C 809.770 407.081, 808.841 405.552, 808.497 403.986 C 808.153 402.420, 807.225 400.602, 806.436 399.947 C 805.646 399.291, 805 397.910, 805 396.878 C 805 395.845, 804.100 394.100, 803 393 C 801.900 391.900, 801 390.386, 801 389.635 C 801 388.884, 800.212 387.191, 799.250 385.873 C 798.288 384.555, 796.921 382.582, 796.214 381.489 C 795.506 380.395, 794.395 378.262, 793.744 376.750 C 793.094 375.238, 792.231 374, 791.828 374 C 791.424 374, 790.346 372.425, 789.433 370.500 C 788.520 368.575, 787.373 367, 786.886 367 C 786.399 367, 786 366.380, 786 365.622 C 786 364.865, 785.363 363.716, 784.584 363.070 C 783.805 362.423, 781.019 358.721, 778.393 354.843 C 775.768 350.964, 773.030 347.565, 772.310 347.289 C 771.589 347.012, 771 346.182, 771 345.443 C 771 344.704, 770.438 343.740, 769.750 343.300 C 769.063 342.860, 766.276 339.800, 763.559 336.500 C 760.841 333.200, 752.848 324.769, 745.796 317.765 C 738.744 310.760, 731.743 304.246, 730.237 303.289 C 728.732 302.331, 727.140 300.975, 726.700 300.274 C 726.260 299.573, 725.248 299, 724.450 299 C 723.653 299, 723 298.325, 723 297.500 C 723 296.675, 722.616 296, 722.146 296 C 721.676 296, 719.989 294.862, 718.396 293.472 C 716.803 292.081, 714.954 290.504, 714.288 289.967 C 713.621 289.431, 711.933 288.471, 710.538 287.835 C 709.142 287.199, 708 286.290, 708 285.815 C 708 285.339, 706.875 284.523, 705.500 284 C 704.125 283.477, 703 282.632, 703 282.123 C 703 281.613, 701.763 280.688, 700.250 280.067 C 698.737 279.446, 696.565 278.387, 695.422 277.713 C 694.279 277.039, 692.560 275.703, 691.601 274.744 C 690.642 273.785, 689.284 273, 688.584 273 C 687.883 273, 686.495 272.100, 685.500 271 C 684.505 269.900, 683.043 269, 682.253 269 C 681.462 269, 679.671 268.100, 678.273 267 C 676.874 265.900, 675.116 265, 674.365 265 C 673.614 265, 673 264.559, 673 264.019 C 673 263.480, 671.763 262.736, 670.250 262.367 C 668.737 261.997, 666.427 260.864, 665.115 259.848 C 663.803 258.831, 662.074 258, 661.273 258 C 660.471 258, 658.671 257.100, 657.273 256 C 655.874 254.900, 653.721 254, 652.488 254 C 651.254 254, 649.695 253.337, 649.022 252.526 C 648.349 251.716, 646.285 250.769, 644.435 250.422 C 642.585 250.075, 640.550 249.163, 639.913 248.395 C 639.276 247.628, 637.573 246.997, 636.128 246.993 C 634.682 246.990, 632.150 246.093, 630.500 245 C 628.850 243.907, 626.185 243.010, 624.579 243.007 C 622.972 243.003, 620.853 242.272, 619.869 241.382 C 618.886 240.492, 615.925 239.534, 613.291 239.255 C 610.656 238.975, 607.825 238.188, 607 237.506 C 606.175 236.824, 602.862 235.971, 599.638 235.611 C 596.413 235.251, 592.826 234.291, 591.665 233.478 C 590.324 232.539, 587.165 232, 583 232 C 578.389 232, 575.712 231.485, 573.973 230.262 C 571.970 228.854, 568.743 228.454, 557 228.156 C 549.025 227.954, 542.020 227.399, 541.432 226.923 C 540.845 226.447, 535.438 225.758, 529.418 225.393 C 519.972 224.819, 518.285 224.952, 517.113 226.364 M 504.396 341.410 C 504.099 342.185, 502.660 343.120, 501.198 343.486 C 499.737 343.853, 496.604 346.256, 494.236 348.827 C 491.867 351.397, 489.660 354.625, 489.331 356 C 489.001 357.375, 488.004 359.335, 487.116 360.354 C 485.656 362.030, 485.471 371.672, 485.200 460.074 L 484.900 557.938 437.200 605.772 C 409.577 633.473, 388.553 655.351, 387.250 657.751 C 385.347 661.258, 385 663.424, 385 671.813 C 385 679.966, 385.331 682.155, 386.862 684.115 C 387.887 685.427, 389.024 687.400, 389.391 688.500 C 389.757 689.600, 390.833 691.400, 391.781 692.500 C 392.730 693.600, 395.163 695.737, 397.187 697.250 C 399.211 698.763, 401.205 700, 401.618 700 C 402.031 700, 404.330 700.950, 406.728 702.110 C 410.218 703.800, 412.460 704.143, 417.970 703.832 C 422.647 703.568, 425.463 702.891, 426.755 701.721 C 427.801 700.775, 429.570 700, 430.685 700 C 431.890 700, 436.691 696.149, 442.526 690.500 C 447.924 685.275, 452.713 681, 453.170 681 C 453.626 681, 454 680.355, 454 679.567 C 454 678.779, 454.900 677.849, 456 677.500 C 457.100 677.151, 458 676.481, 458 676.012 C 458 675.542, 460.061 673.097, 462.579 670.579 C 465.097 668.061, 467.572 666, 468.079 666 C 468.586 666, 469 665.612, 469 665.137 C 469 664.663, 471.914 661.288, 475.476 657.637 C 479.038 653.987, 482.413 651, 482.976 651 C 483.539 651, 484 650.586, 484 650.079 C 484 649.572, 486.061 647.097, 488.579 644.579 C 491.097 642.061, 493.572 640, 494.079 640 C 494.586 640, 495 639.592, 495 639.093 C 495 638.594, 497.967 635.219, 501.593 631.593 C 505.219 627.967, 508.594 625, 509.093 625 C 509.592 625, 510 624.586, 510 624.079 C 510 623.572, 512.061 621.097, 514.579 618.579 C 517.097 616.061, 519.327 614, 519.533 614 C 519.740 614, 521.055 612.855, 522.455 611.455 C 523.855 610.055, 525 608.725, 525 608.500 C 525 608.275, 526.145 606.945, 527.545 605.545 C 528.945 604.145, 530.490 603, 530.978 603 C 531.466 603, 532.151 602.100, 532.500 601 C 532.849 599.900, 533.779 599, 534.567 599 C 535.355 599, 536 598.536, 536 597.969 C 536 597.402, 537.800 595.283, 540 593.260 C 542.200 591.237, 544 588.799, 544 587.841 C 544 586.883, 544.749 585.680, 545.664 585.168 C 546.637 584.623, 547.748 582.008, 548.338 578.868 C 548.977 575.473, 549.348 535.647, 549.348 470.500 C 549.348 405.121, 548.978 365.529, 548.335 362.104 C 547.777 359.136, 546.574 356.162, 545.661 355.494 C 544.747 354.826, 544 353.767, 544 353.140 C 544 352.513, 542.200 350.200, 540 348 C 537.800 345.800, 535.619 344, 535.153 344 C 534.687 344, 533.268 343.100, 532 342 C 529.961 340.232, 528.259 340, 517.316 340 C 507.587 340, 504.821 340.302, 504.396 341.410 M 651.643 371.500 C 650.818 372.325, 649.672 373, 649.097 373 C 648.522 373, 641.852 379.223, 634.276 386.829 C 626.699 394.435, 619.487 402.512, 618.250 404.777 C 616.860 407.321, 616 410.617, 616 413.395 C 616 416.163, 616.881 419.550, 618.288 422.197 C 619.547 424.564, 621.653 427.738, 622.969 429.250 C 624.284 430.762, 625.807 432, 626.352 432 C 626.897 432, 628.213 432.788, 629.276 433.750 C 630.718 435.055, 632.937 435.500, 638 435.500 C 643.063 435.500, 645.282 435.055, 646.724 433.750 C 647.787 432.788, 649.130 432, 649.708 432 C 650.285 432, 656.887 425.906, 664.379 418.457 C 671.870 411.009, 678 404.281, 678 403.507 C 678 402.733, 678.763 401.672, 679.696 401.150 C 680.937 400.456, 681.497 398.497, 681.783 393.850 C 681.997 390.358, 681.665 386.375, 681.043 385 C 680.422 383.625, 679.371 381.570, 678.706 380.433 C 678.042 379.296, 676.195 377.159, 674.603 375.683 C 673.011 374.207, 671.154 373, 670.476 373 C 669.799 373, 668.685 372.325, 668 371.500 C 667.117 370.436, 664.779 370, 659.949 370 C 655.232 370, 652.682 370.461, 651.643 371.500 M 695 524.500 C 694.315 525.325, 692.939 526, 691.941 526 C 690.943 526, 688.527 527.688, 686.572 529.750 C 684.617 531.813, 682.999 534.175, 682.977 535 C 682.955 535.825, 682.276 537.374, 681.468 538.441 C 680.661 539.509, 680.014 542.433, 680.032 544.941 C 680.049 547.449, 680.724 550.374, 681.532 551.441 C 682.339 552.509, 683.014 554.084, 683.032 554.941 C 683.049 555.799, 684.152 557.737, 685.484 559.250 C 686.815 560.763, 688.276 562, 688.730 562 C 689.184 562, 690.326 562.900, 691.268 564 C 692.894 565.899, 694.218 566, 717.500 566 C 740.782 566, 742.106 565.899, 743.732 564 C 744.674 562.900, 746.034 562, 746.754 562 C 747.474 562, 748.352 561.247, 748.705 560.326 C 749.058 559.406, 750.169 557.831, 751.174 556.826 C 752.178 555.822, 753 553.965, 753 552.700 C 753 551.435, 753.478 549.922, 754.063 549.337 C 754.648 548.752, 755.167 546.841, 755.216 545.091 C 755.266 543.340, 754.788 541.388, 754.154 540.754 C 753.519 540.119, 753 538.555, 753 537.278 C 753 535.946, 751.239 533.045, 748.873 530.478 C 746.603 528.015, 743.958 526, 742.995 526 C 742.032 526, 740.685 525.325, 740 524.500 C 738.965 523.253, 735.173 523, 717.500 523 C 699.827 523, 696.035 523.253, 695 524.500 M 636 654.899 C 635.175 655.363, 632.895 656.031, 630.934 656.383 C 628.869 656.753, 625.921 658.426, 623.934 660.356 C 622.045 662.189, 619.487 665.366, 618.250 667.414 C 616.595 670.154, 616 672.691, 616 677.010 C 616 680.240, 616.494 683.188, 617.099 683.561 C 617.703 683.935, 618.757 685.570, 619.440 687.196 C 620.124 688.822, 625.142 694.700, 630.592 700.258 C 636.041 705.816, 642.880 712.306, 645.789 714.682 L 651.078 719 659.895 719 C 668.454 719, 668.849 718.896, 673.356 715.454 C 675.910 713.504, 678 711.129, 678 710.176 C 678 709.224, 678.900 707.674, 680 706.732 C 681.612 705.352, 682 703.782, 682 698.645 C 682 693.784, 681.525 691.666, 680 689.727 C 678.900 688.329, 678 686.662, 678 686.024 C 678 685.385, 672.263 679.259, 665.250 672.411 C 658.237 665.562, 651.788 659.293, 650.917 658.480 C 650.046 657.667, 647.346 656.607, 644.917 656.124 C 642.488 655.641, 639.825 654.978, 639 654.650 C 638.175 654.322, 636.825 654.434, 636 654.899 M 499.081 710.402 C 498.442 711.173, 496.811 712.081, 495.459 712.421 C 494.107 712.760, 493 713.705, 493 714.519 C 493 715.334, 492.311 716, 491.469 716 C 490.626 716, 489.642 716.788, 489.281 717.750 C 488.919 718.712, 487.921 720.026, 487.062 720.669 C 485.722 721.672, 485.500 725.231, 485.500 745.669 L 485.500 769.500 488.289 773.447 C 489.823 775.618, 492.610 778.484, 494.482 779.816 C 497.481 781.950, 498.963 782.238, 506.945 782.238 C 515.904 782.238, 516.053 782.198, 520.502 778.552 C 522.976 776.525, 525 774.290, 525 773.586 C 525 772.882, 525.900 771.268, 527 770 C 528.863 767.852, 529 766.259, 529 746.795 C 529 727.001, 528.881 725.680, 526.750 721.805 C 525.513 719.554, 523.196 716.428, 521.602 714.857 C 520.008 713.285, 517.925 712, 516.974 712 C 516.023 712, 514.685 711.325, 514 710.500 C 513.136 709.459, 510.840 709, 506.500 709 C 502.354 709, 499.853 709.473, 499.081 710.402" stroke="none" fill="#0423fb" fill-rule="evenodd"/><path d="M 467.434 59.908 C 453.170 65.255, 436.775 71.842, 431 74.546 C 425.225 77.251, 417.350 81.218, 413.500 83.362 C 409.650 85.506, 403.627 89.254, 400.116 91.690 L 393.733 96.120 394.427 87.246 C 395.034 79.487, 394.891 78.087, 393.289 76.109 C 391.835 74.313, 390.877 73.993, 388.641 74.554 C 387.043 74.955, 380.587 80.185, 373.724 86.638 C 367.070 92.895, 359.210 99.678, 356.257 101.712 C 351.328 105.107, 350.424 105.377, 345.195 105.028 C 342.063 104.818, 336.562 104.656, 332.972 104.668 C 328.953 104.681, 323.882 105.542, 319.781 106.906 C 316.117 108.126, 310.505 110.829, 307.310 112.913 C 304.114 114.997, 299.025 119.243, 296 122.349 C 292.975 125.455, 288.800 130.799, 286.722 134.226 C 284.644 137.652, 282.443 142.129, 281.830 144.174 C 280.761 147.740, 280.492 147.919, 275.249 148.575 C 272.242 148.950, 265.315 148.750, 259.855 148.129 C 254.395 147.508, 247.325 147, 244.142 147 C 240.960 147, 236.343 147.686, 233.881 148.525 C 230.982 149.513, 225.226 153.617, 217.532 160.184 C 211.001 165.757, 197.972 177.621, 188.579 186.547 C 179.185 195.473, 163.124 211.264, 152.886 221.638 C 142.649 232.012, 133.580 241.856, 132.733 243.513 C 131.887 245.169, 129.568 251.198, 127.580 256.909 C 125.592 262.620, 122.736 269.589, 121.233 272.396 C 119.488 275.654, 112.528 283.468, 101.987 294 C 92.906 303.075, 78.228 317.475, 69.370 326 C 60.498 334.539, 50.505 345.252, 47.119 349.855 C 43.739 354.450, 39.460 360.791, 37.611 363.945 C 35.763 367.100, 32.451 373.690, 30.253 378.590 C 28.054 383.491, 25.045 391.100, 23.567 395.500 C 22.088 399.900, 19.550 408.900, 17.928 415.500 C 16.306 422.100, 13.864 433.800, 12.503 441.500 C 11.141 449.200, 9.119 461.800, 8.008 469.500 C 6.898 477.200, 4.597 491.904, 2.895 502.176 L -0.198 520.852 7.846 536.756 C 12.270 545.504, 17.758 556.900, 20.040 562.080 C 22.322 567.261, 25.924 576.112, 28.044 581.750 C 30.164 587.387, 33.288 596.837, 34.987 602.750 C 36.686 608.662, 39.184 618.957, 40.538 625.626 C 41.892 632.295, 43 639.822, 43 642.353 C 43 646.141, 42.564 647.240, 40.533 648.570 C 38.735 649.749, 36.972 650.002, 34.033 649.506 L 30 648.824 30.020 661.162 C 30.031 667.948, 30.481 676.553, 31.021 680.284 C 31.560 684.016, 33.420 690.766, 35.154 695.284 C 36.888 699.803, 46.382 721.725, 56.250 744 C 66.119 766.275, 77.241 791.700, 80.965 800.500 C 84.690 809.300, 90.440 823.700, 93.743 832.500 C 97.047 841.300, 101.161 852.790, 102.885 858.033 C 105.732 866.689, 106.261 867.585, 108.642 867.782 C 110.083 867.902, 112.716 868.898, 114.492 869.995 C 116.269 871.093, 118.903 873.696, 120.347 875.780 C 121.791 877.863, 123.681 882.703, 124.547 886.534 C 125.413 890.365, 127.055 897.325, 128.196 902 C 129.338 906.675, 131.593 913.875, 133.207 918 C 134.822 922.125, 138.217 929.100, 140.752 933.500 C 143.766 938.732, 148.338 944.472, 153.964 950.088 C 160.417 956.530, 164.434 959.599, 170.034 962.365 C 174.140 964.393, 179.975 966.711, 183 967.515 C 186.598 968.471, 193.513 968.983, 203 968.996 C 210.975 969.006, 220.425 969.485, 224 970.060 C 227.575 970.635, 232.750 972.144, 235.500 973.413 C 238.250 974.683, 243.425 978.082, 247 980.967 C 250.575 983.853, 256.425 987.677, 260 989.466 C 263.575 991.255, 269.425 993.659, 273 994.808 C 276.575 995.958, 282.170 997.371, 285.434 997.949 C 288.697 998.527, 294.637 999, 298.633 999 L 305.898 999 333.699 1013.366 C 348.990 1021.268, 365.550 1030.115, 370.500 1033.027 C 375.450 1035.939, 382.126 1040.092, 385.335 1042.256 C 390.256 1045.573, 391.702 1046.091, 394.557 1045.555 C 396.419 1045.206, 398.586 1044.001, 399.374 1042.877 C 400.762 1040.895, 400.825 1040.927, 401.491 1043.957 C 401.868 1045.675, 401.861 1049.372, 401.476 1052.173 L 400.776 1057.265 404.138 1056.662 C 405.987 1056.330, 415.639 1055.153, 425.587 1054.046 C 435.535 1052.940, 451.510 1051.518, 461.087 1050.888 C 470.717 1050.255, 486.099 1050.009, 495.500 1050.339 C 504.850 1050.668, 517.675 1051.657, 524 1052.539 C 530.325 1053.420, 539.109 1054.981, 543.520 1056.008 C 547.931 1057.035, 552.683 1058.309, 554.080 1058.840 C 555.867 1059.520, 558.231 1059.371, 562.060 1058.337 C 565.807 1057.325, 570.612 1057.003, 577.500 1057.301 C 585.163 1057.632, 589.136 1058.356, 594.500 1060.399 C 598.350 1061.865, 605.775 1065.453, 611 1068.372 C 617.484 1071.993, 622.167 1073.899, 625.751 1074.374 C 629.080 1074.815, 631.781 1074.653, 633.128 1073.931 C 634.988 1072.936, 635.182 1072.187, 634.680 1067.949 L 634.107 1063.104 641.803 1060.145 C 646.036 1058.518, 655.704 1055.952, 663.286 1054.444 C 674.957 1052.122, 677.439 1051.897, 679.459 1052.978 C 680.772 1053.681, 684.167 1057.152, 687.003 1060.691 C 689.840 1064.231, 693.587 1067.997, 695.330 1069.060 C 697.074 1070.123, 699.288 1070.994, 700.250 1070.996 C 701.781 1071, 702 1069.925, 702 1062.401 C 702 1056.710, 702.524 1052.699, 703.548 1050.540 C 704.400 1048.745, 706.221 1046.765, 707.595 1046.139 C 708.991 1045.503, 715.061 1045, 721.344 1045 L 732.595 1045 732.182 1038.521 C 731.955 1034.957, 732.072 1030.427, 732.443 1028.454 C 732.957 1025.710, 735.972 1021.766, 745.261 1011.683 C 751.940 1004.433, 760.802 995.171, 764.953 991.102 C 769.104 987.032, 774.806 982.169, 777.624 980.294 L 782.748 976.884 788.285 982.692 C 791.331 985.886, 794.795 989.738, 795.984 991.250 C 797.173 992.763, 798.625 994, 799.212 994 C 799.905 994, 800.085 992.117, 799.726 988.637 C 799.422 985.688, 797.964 980.850, 796.487 977.887 C 795.009 974.924, 791.552 970.192, 788.804 967.371 C 785.624 964.107, 783.937 961.566, 784.165 960.383 C 784.430 959.007, 787.112 957.681, 794.511 955.269 C 800.005 953.478, 806.205 952.009, 808.290 952.006 C 810.374 952.003, 813.831 952.894, 815.972 953.986 C 818.113 955.078, 820.146 956.428, 820.491 956.986 C 820.836 957.544, 821.536 958, 822.046 958 C 822.556 958, 821.981 955.957, 820.768 953.459 C 819.113 950.053, 818.823 948.504, 819.608 947.259 C 820.184 946.347, 821.858 944.702, 823.330 943.603 C 825.447 942.023, 828.248 941.472, 836.752 940.966 C 843.677 940.554, 848.628 939.740, 850.671 938.678 C 852.415 937.772, 854.715 935.786, 855.782 934.265 C 856.849 932.744, 858.198 929.925, 858.780 928 C 859.362 926.075, 860.133 922.320, 860.495 919.655 C 861.087 915.284, 862.425 913.280, 874.186 899.155 C 881.356 890.545, 890.816 878.550, 895.208 872.500 C 899.600 866.450, 906.686 855.875, 910.956 849 C 915.225 842.125, 921.948 830.607, 925.896 823.405 C 929.844 816.203, 936.486 802.937, 940.657 793.925 C 944.828 784.912, 951.114 770.370, 954.626 761.609 C 958.139 752.848, 960.816 745.482, 960.575 745.242 C 960.334 745.001, 958.010 746.428, 955.411 748.412 C 952.812 750.397, 948.619 753.960, 946.093 756.330 C 943.567 758.701, 939.089 763.285, 936.143 766.518 C 933.196 769.751, 928.144 776.324, 924.916 781.125 C 921.688 785.926, 918.036 790.562, 916.801 791.427 C 915.566 792.292, 913.514 793, 912.242 793 C 910.970 793, 908.852 792.294, 907.534 791.430 L 905.138 789.860 902.043 799.180 L 898.949 808.500 899.598 801.025 C 900.142 794.767, 900.024 793.724, 898.874 794.620 C 898.118 795.209, 889.400 801.984, 879.500 809.675 C 869.600 817.366, 850.250 832.128, 836.500 842.479 C 822.750 852.830, 800.475 869.164, 787 878.777 C 773.525 888.390, 750.478 904.254, 735.785 914.031 C 721.091 923.809, 707.048 932.580, 704.578 933.523 C 701.636 934.647, 698.890 935.014, 696.620 934.588 C 694.453 934.182, 692.093 932.695, 690.326 930.623 C 688.772 928.800, 686.984 926.452, 686.353 925.404 C 685.270 923.606, 684.993 923.698, 681.353 927.071 C 679.234 929.035, 676.003 931.848, 674.173 933.321 C 672.344 934.795, 669.745 936, 668.399 936 C 666.677 936, 665.655 935.222, 664.953 933.377 C 664.405 931.934, 664.218 929.346, 664.538 927.627 L 665.120 924.500 656.989 924.253 C 652.516 924.117, 648.029 924.449, 647.016 924.992 C 646.003 925.534, 644.399 928.007, 643.451 930.489 C 642.504 932.970, 641.217 935, 640.592 935 C 639.966 935, 638.607 933.425, 637.570 931.500 C 636.533 929.575, 635.111 928, 634.410 928 C 633.709 928, 632.906 928.787, 632.627 929.750 C 632.347 930.712, 631.802 934.190, 631.416 937.478 C 630.855 942.249, 630.545 943.002, 629.880 941.206 C 629.423 939.968, 628.345 938.686, 627.487 938.357 C 626.628 938.027, 624.978 938.600, 623.820 939.629 C 622.661 940.658, 620.927 942.777, 619.965 944.337 L 618.216 947.174 614.937 942.337 C 613.134 939.677, 610.075 935.700, 608.139 933.500 C 606.204 931.300, 603.851 928.944, 602.912 928.264 C 601.361 927.143, 601.378 927.489, 603.102 932.025 C 604.146 934.773, 605 938.592, 605 940.511 C 605 942.430, 604.554 944, 604.008 944 C 603.463 944, 602.455 943.100, 601.768 942 C 601.081 940.900, 600.235 940, 599.889 940 C 599.542 940, 598.952 943.114, 598.577 946.919 C 597.988 952.895, 597.538 954.073, 595.278 955.553 C 593.839 956.496, 589.824 959.907, 586.356 963.134 C 580.691 968.404, 579.613 969, 575.745 969 C 573.378 969, 565.829 969.682, 558.970 970.515 C 552.112 971.348, 542.900 972.734, 538.500 973.595 C 534.100 974.456, 527.018 976.032, 522.763 977.098 L 515.026 979.036 503.263 976.097 C 496.793 974.481, 484.525 971.780, 476 970.096 C 467.475 968.412, 454.875 966.151, 448 965.071 C 441.125 963.991, 429.425 962.430, 422 961.600 C 414.575 960.771, 402.200 959.595, 394.500 958.986 C 386.800 958.378, 376.102 956.997, 370.727 955.916 C 365.351 954.836, 357.280 952.792, 352.791 951.374 C 348.302 949.956, 340.657 947.073, 335.801 944.967 C 330.945 942.861, 322.018 938.326, 315.962 934.889 C 305.060 928.701, 304.979 928.628, 307.744 927.466 C 309.280 926.820, 311.991 924.635, 313.769 922.611 C 316.365 919.654, 317 918.064, 317 914.524 C 317 912.101, 316.616 909.881, 316.146 909.590 C 315.677 909.300, 314.796 910.152, 314.190 911.483 C 313.583 912.815, 311.690 914.626, 309.983 915.509 C 308.277 916.391, 303.107 917.938, 298.496 918.946 L 290.111 920.778 274.806 906.101 C 266.388 898.029, 245.325 878.229, 228 862.101 C 210.675 845.973, 185.525 821.915, 172.112 808.639 C 158.699 795.362, 142.088 778.200, 135.200 770.500 C 128.312 762.800, 121.234 754.250, 119.472 751.500 C 117.709 748.750, 114.355 742.695, 112.018 738.043 C 109.682 733.392, 103.824 719.892, 99.001 708.043 C 94.177 696.195, 89.045 683.837, 87.596 680.582 L 84.961 674.663 82.176 677.332 C 80.644 678.799, 78.472 680, 77.350 680 C 76.228 680, 74.582 679.196, 73.693 678.213 C 72.804 677.231, 71.118 674.260, 69.946 671.611 C 68.441 668.208, 68.003 665.796, 68.455 663.390 C 68.847 661.297, 70.090 659.332, 71.679 658.291 C 74.143 656.676, 74.449 656.698, 78.202 658.753 L 82.139 660.910 81.592 658.205 C 81.291 656.717, 78.779 639.430, 76.009 619.789 C 71.772 589.734, 71.138 583.347, 72.007 579.469 C 72.575 576.934, 75.561 569.675, 78.643 563.338 L 84.245 551.816 91.529 486.158 C 96.376 442.463, 99.703 416.486, 101.475 408.500 C 102.940 401.900, 106.329 389.887, 109.007 381.805 C 111.685 373.723, 115.812 362.923, 118.178 357.805 C 120.544 352.687, 124.659 344.450, 127.323 339.500 C 129.986 334.550, 135.453 325.550, 139.472 319.500 C 143.490 313.450, 150.344 304, 154.702 298.500 C 159.061 293, 167.375 283.325, 173.178 277 C 178.982 270.675, 188.853 260.535, 195.115 254.467 C 201.377 248.399, 216.175 234.515, 228 223.613 C 239.825 212.711, 252.248 201.820, 255.607 199.410 C 258.967 197, 267.742 191.506, 275.107 187.201 C 282.473 182.897, 299.750 172.695, 313.500 164.530 C 327.250 156.366, 344.800 146.402, 352.500 142.389 C 360.200 138.376, 371.225 133.014, 377 130.475 C 382.775 127.935, 394.025 123.678, 402 121.014 C 409.975 118.350, 421.675 115.023, 428 113.622 C 434.325 112.221, 444.900 110.331, 451.500 109.423 C 459.955 108.260, 471.793 107.725, 491.575 107.611 C 519.494 107.451, 519.678 107.436, 524.575 104.921 C 528.129 103.096, 530.187 101.154, 531.967 97.946 C 534.143 94.025, 534.482 92.001, 534.834 80.810 L 535.233 68.120 529.800 68.681 C 525.744 69.100, 523.499 68.799, 520.934 67.493 C 519.045 66.530, 515.250 63.881, 512.500 61.606 C 509.750 59.330, 506.791 56.923, 505.924 56.256 C 505.057 55.589, 501.877 53.951, 498.858 52.616 L 493.367 50.188 467.434 59.908 M 642.178 83.918 L 631.856 84.500 628.178 88.557 C 626.155 90.788, 624.050 93.355, 623.500 94.262 C 622.585 95.771, 622.033 95.782, 617 94.399 C 612.864 93.262, 608.895 93.043, 601 93.519 C 595.225 93.867, 588.731 94.663, 586.569 95.288 C 584.406 95.914, 580.987 98.017, 578.969 99.963 C 576.952 101.908, 574.477 105.691, 573.469 108.369 C 571.881 112.590, 571.792 113.979, 572.802 118.791 C 573.443 121.846, 575.212 126.147, 576.733 128.349 C 578.255 130.552, 582.425 134.784, 586 137.754 C 589.575 140.723, 596.550 145.128, 601.500 147.541 C 606.450 149.954, 614.775 153.074, 620 154.475 C 625.225 155.876, 635.125 157.532, 642 158.155 L 654.500 159.289 667.500 166.829 C 674.650 170.976, 686.575 178.169, 694 182.813 C 701.425 187.457, 716.275 197.195, 727 204.454 C 737.725 211.712, 765.400 231.155, 788.500 247.660 C 811.600 264.165, 832.469 278.965, 834.876 280.550 C 838.354 282.841, 840.319 283.417, 844.463 283.357 C 848.489 283.298, 851.903 282.226, 859.471 278.641 C 864.859 276.088, 869.433 274, 869.634 274 C 869.835 274, 870 278.676, 870 284.391 C 870 292.201, 870.608 297.105, 872.449 304.141 C 873.796 309.288, 877.171 319.270, 879.951 326.323 C 882.730 333.375, 886.311 341.025, 887.910 343.323 C 889.508 345.620, 892.544 349.123, 894.658 351.107 C 896.771 353.091, 900.649 356.158, 903.277 357.923 C 905.904 359.688, 909.783 362.933, 911.897 365.133 C 914.011 367.333, 916.884 371.469, 918.282 374.324 C 919.680 377.179, 921.357 382.436, 922.009 386.007 C 922.701 389.800, 922.921 395.301, 922.538 399.235 C 922.177 402.938, 921.041 409.001, 920.014 412.707 L 918.145 419.445 923.553 430.018 C 926.528 435.833, 931.747 444.818, 935.151 449.985 C 938.585 455.198, 945.180 463.191, 949.966 467.940 C 954.711 472.648, 960.034 477.686, 961.796 479.135 C 964.736 481.553, 965 482.252, 965.004 487.635 C 965.006 491.717, 965.610 494.488, 966.989 496.750 C 968.352 498.986, 969.731 500, 971.409 500 C 972.749 500, 975.231 498.835, 976.923 497.411 C 979.956 494.859, 980 494.853, 980 496.998 C 980 498.195, 979.251 504.872, 978.335 511.837 C 977.313 519.614, 976.671 531.445, 976.671 542.500 C 976.671 555.899, 977.057 561.650, 978.181 565 L 979.691 569.500 980.396 562.500 C 980.784 558.650, 981.768 549.200, 982.584 541.500 C 983.399 533.800, 985.187 520.975, 986.557 513 C 987.927 505.025, 990.383 493.476, 992.014 487.336 C 993.646 481.196, 996.145 472.944, 997.569 468.998 C 998.992 465.052, 999.938 461.605, 999.671 461.338 C 999.404 461.071, 997.862 461.537, 996.245 462.373 C 994.627 463.210, 991.407 466.806, 989.088 470.365 C 986.770 473.923, 984.190 477.097, 983.355 477.417 C 982.520 477.738, 981.491 478, 981.068 478 C 980.646 478, 980.027 467.987, 979.692 455.750 C 979.358 443.512, 978.162 424.950, 977.034 414.500 C 975.906 404.050, 973.471 383.694, 971.621 369.265 L 968.259 343.030 917.104 261.166 C 872.955 190.514, 864.741 177.946, 857.134 169.401 C 852.286 163.956, 844.171 155.900, 839.101 151.500 C 834.031 147.100, 825.611 140.325, 820.391 136.444 C 815.170 132.564, 806.084 126.494, 800.200 122.956 C 794.315 119.418, 784.212 113.911, 777.749 110.719 C 771.286 107.527, 761.611 103.179, 756.249 101.057 C 750.887 98.935, 741.701 95.612, 735.835 93.674 C 729.969 91.735, 720.519 89.006, 714.835 87.610 C 709.151 86.214, 700.130 84.605, 694.789 84.036 C 689.449 83.466, 677.749 83.075, 668.789 83.168 C 659.830 83.260, 647.855 83.597, 642.178 83.918 M 83.126 708.750 C 85.621 713.694, 87.328 718.728, 87.840 722.653 C 88.281 726.037, 89.409 729.976, 90.346 731.406 C 91.284 732.836, 93.882 735.163, 96.120 736.576 C 98.358 737.988, 100.343 738.990, 100.532 738.802 C 100.720 738.613, 99.215 735.084, 97.187 730.959 C 95.159 726.835, 91.521 719.060, 89.102 713.683 C 86.682 708.305, 83.770 703.252, 82.629 702.453 C 81.488 701.654, 80.253 701, 79.885 701 C 79.516 701, 80.975 704.487, 83.126 708.750 M 64.896 705.328 C 63.876 707.567, 64.301 708.421, 69.533 714.646 C 72.701 718.416, 75.449 721.685, 75.640 721.910 C 75.831 722.136, 75.250 719.886, 74.348 716.910 C 73.446 713.935, 72.164 709.700, 71.499 707.500 C 70.644 704.672, 69.664 703.407, 68.155 703.182 C 66.676 702.961, 65.674 703.622, 64.896 705.328" stroke="none" fill="#2464ec" fill-rule="evenodd"/></svg>